<?xml version="1.0" encoding="utf-8"?>
<!-- Generator: Adobe Illustrator 16.0.0, SVG Export Plug-In . SVG Version: 6.00 Build 0)  -->
<!DOCTYPE svg PUBLIC "-//W3C//DTD SVG 1.1//EN" "http://www.w3.org/Graphics/SVG/1.1/DTD/svg11.dtd">
<svg version="1.1" id="Capa_1" xmlns="http://www.w3.org/2000/svg" xmlns:xlink="http://www.w3.org/1999/xlink" x="0px" y="0px"
	 width="550px" height="84.34px" viewBox="0 0 550 84.34" enable-background="new 0 0 550 84.34" xml:space="preserve">
<g id="Regla">
	<rect y="5" fill="#DDDDDD" width="550" height="79.34"/>
	<rect fill="#F4F4F4" width="550" height="79.34"/>
	<circle fill="#DDDDDD" cx="30.729" cy="39.67" r="9.562"/>
	<rect x="60.916" fill="#DDDDDD" width="1.706" height="20.474"/>
	<rect x="129.163" fill="#DDDDDD" width="1.707" height="20.474"/>
	<rect x="67.741" fill="#DDDDDD" width="1.706" height="13.649"/>
	<rect x="74.565" fill="#DDDDDD" width="1.706" height="13.649"/>
	<rect x="81.39" fill="#DDDDDD" width="1.706" height="13.649"/>
	<rect x="88.214" fill="#DDDDDD" width="1.707" height="13.649"/>
	<rect x="101.864" fill="#DDDDDD" width="1.706" height="13.649"/>
	<rect x="108.688" fill="#DDDDDD" width="1.707" height="13.649"/>
	<rect x="115.514" fill="#DDDDDD" width="1.706" height="13.649"/>
	<rect x="122.338" fill="#DDDDDD" width="1.706" height="13.649"/>
	<rect x="95.04" fill="#DDDDDD" width="1.706" height="17.062"/>
	<rect x="197.409" fill="#DDDDDD" width="1.706" height="20.474"/>
	<rect x="135.987" fill="#DDDDDD" width="1.706" height="13.649"/>
	<rect x="142.812" fill="#DDDDDD" width="1.706" height="13.649"/>
	<rect x="149.636" fill="#DDDDDD" width="1.707" height="13.649"/>
	<rect x="156.461" fill="#DDDDDD" width="1.706" height="13.649"/>
	<rect x="170.11" fill="#DDDDDD" width="1.707" height="13.649"/>
	<rect x="176.936" fill="#DDDDDD" width="1.706" height="13.649"/>
	<rect x="183.76" fill="#DDDDDD" width="1.706" height="13.649"/>
	<rect x="190.584" fill="#DDDDDD" width="1.707" height="13.649"/>
	<rect x="163.286" fill="#DDDDDD" width="1.706" height="17.062"/>
	<rect x="265.656" fill="#DDDDDD" width="1.706" height="20.474"/>
	<rect x="204.234" fill="#DDDDDD" width="1.706" height="13.649"/>
	<rect x="211.059" fill="#DDDDDD" width="1.706" height="13.649"/>
	<rect x="217.883" fill="#DDDDDD" width="1.706" height="13.649"/>
	<rect x="224.708" fill="#DDDDDD" width="1.706" height="13.649"/>
	<rect x="238.357" fill="#DDDDDD" width="1.706" height="13.649"/>
	<rect x="245.182" fill="#DDDDDD" width="1.706" height="13.649"/>
	<rect x="252.007" fill="#DDDDDD" width="1.706" height="13.649"/>
	<rect x="258.831" fill="#DDDDDD" width="1.707" height="13.649"/>
	<rect x="231.532" fill="#DDDDDD" width="1.707" height="17.062"/>
	<rect x="333.902" fill="#DDDDDD" width="1.706" height="20.474"/>
	<rect x="272.48" fill="#DDDDDD" width="1.706" height="13.649"/>
	<rect x="279.305" fill="#DDDDDD" width="1.707" height="13.649"/>
	<rect x="286.13" fill="#DDDDDD" width="1.706" height="13.649"/>
	<rect x="292.955" fill="#DDDDDD" width="1.706" height="13.649"/>
	<rect x="306.604" fill="#DDDDDD" width="1.706" height="13.649"/>
	<rect x="313.429" fill="#DDDDDD" width="1.706" height="13.649"/>
	<rect x="320.253" fill="#DDDDDD" width="1.707" height="13.649"/>
	<rect x="327.078" fill="#DDDDDD" width="1.705" height="13.649"/>
	<rect x="299.778" fill="#DDDDDD" width="1.707" height="17.062"/>
	<rect x="340.727" fill="#DDDDDD" width="1.707" height="13.649"/>
	<rect x="347.552" fill="#DDDDDD" width="1.706" height="13.649"/>
	<rect x="354.377" fill="#DDDDDD" width="1.706" height="13.649"/>
	<rect x="361.201" fill="#DDDDDD" width="1.706" height="13.649"/>
	<rect x="374.851" fill="#DDDDDD" width="1.706" height="13.649"/>
	<rect x="381.675" fill="#DDDDDD" width="1.707" height="13.649"/>
	<rect x="368.025" fill="#DDDDDD" width="1.706" height="17.062"/>
	<rect x="388.5" fill="#DDDDDD" width="1.706" height="13.649"/>
	<rect x="395.323" fill="#DDDDDD" width="1.707" height="13.649"/>
	<rect x="402.148" fill="#DDDDDD" width="1.706" height="20.474"/>
	<rect x="408.973" fill="#DDDDDD" width="1.707" height="13.649"/>
	<rect x="415.798" fill="#DDDDDD" width="1.706" height="13.649"/>
	<rect x="422.623" fill="#DDDDDD" width="1.705" height="13.649"/>
	<rect x="429.446" fill="#DDDDDD" width="1.707" height="13.649"/>
	<rect x="443.097" fill="#DDDDDD" width="1.706" height="13.649"/>
	<rect x="449.921" fill="#DDDDDD" width="1.707" height="13.649"/>
	<rect x="436.271" fill="#DDDDDD" width="1.706" height="17.062"/>
	<rect x="456.746" fill="#DDDDDD" width="1.705" height="13.649"/>
	<rect x="463.569" fill="#DDDDDD" width="1.707" height="13.649"/>
	<rect x="470.395" fill="#DDDDDD" width="1.706" height="20.474"/>
	<rect x="477.219" fill="#DDDDDD" width="1.707" height="13.649"/>
	<rect x="484.044" fill="#DDDDDD" width="1.706" height="13.649"/>
	<rect x="490.869" fill="#DDDDDD" width="1.705" height="13.649"/>
	<rect x="497.692" fill="#DDDDDD" width="1.707" height="13.649"/>
	<rect x="511.343" fill="#DDDDDD" width="1.706" height="13.649"/>
	<rect x="518.167" fill="#DDDDDD" width="1.707" height="13.649"/>
	<rect x="504.518" fill="#DDDDDD" width="1.706" height="17.062"/>
	<rect x="524.991" fill="#DDDDDD" width="1.706" height="13.649"/>
	<rect x="531.815" fill="#DDDDDD" width="1.707" height="13.649"/>
	<rect x="538.641" fill="#DDDDDD" width="1.706" height="20.474"/>
</g>
</svg>
