<?xml version="1.0" encoding="utf-8"?>
<!-- Generator: Adobe Illustrator 16.0.0, SVG Export Plug-In . SVG Version: 6.00 Build 0)  -->
<!DOCTYPE svg PUBLIC "-//W3C//DTD SVG 1.1//EN" "http://www.w3.org/Graphics/SVG/1.1/DTD/svg11.dtd">
<svg version="1.1" id="Capa_1" xmlns="http://www.w3.org/2000/svg" xmlns:xlink="http://www.w3.org/1999/xlink" x="0px" y="0px"
	 width="67.417px" height="158.688px" viewBox="0 0 67.417 158.688" enable-background="new 0 0 67.417 158.688"
	 xml:space="preserve">
<g id="Goma_1_">
	<path fill="#CB7572" d="M67.417,148.731c0,5.498-4.459,9.956-9.957,9.956H9.957c-5.5,0-9.957-4.458-9.957-9.956v-88.99
		c0-5.499,4.457-9.957,9.957-9.957h47.502c5.498,0,9.957,4.458,9.957,9.957V148.731z"/>
	<path fill="#F4F4F4" d="M57.459,146.241H9.957c-5.5,0-9.957-4.458-9.957-9.956v4.148c0,5.499,4.457,9.957,9.957,9.957h47.502
		c5.498,0,9.957-4.458,9.957-9.957v-4.148C67.417,141.783,62.958,146.241,57.459,146.241z"/>
	<path fill="#E29088" d="M67.417,123.839c0,5.498-4.459,9.957-9.957,9.957H9.957c-5.5,0-9.957-4.459-9.957-9.957v-88.99
		c0-5.498,4.457-9.957,9.957-9.957h47.502c5.498,0,9.957,4.459,9.957,9.957V123.839z"/>
	<path fill="#40A7AA" d="M67.417,49.162H0V9.957C0,4.458,4.457,0,9.957,0h47.502c5.498,0,9.957,4.458,9.957,9.957V49.162z"/>
</g>
</svg>
