<?xml version="1.0" encoding="utf-8"?>
<!-- Generator: Adobe Illustrator 16.0.0, SVG Export Plug-In . SVG Version: 6.00 Build 0)  -->
<!DOCTYPE svg PUBLIC "-//W3C//DTD SVG 1.1//EN" "http://www.w3.org/Graphics/SVG/1.1/DTD/svg11.dtd">
<svg version="1.1" id="Capa_1" xmlns="http://www.w3.org/2000/svg" xmlns:xlink="http://www.w3.org/1999/xlink" x="0px" y="0px"
	 width="67.417px" height="84.012px" viewBox="0 0 67.417 84.012" enable-background="new 0 0 67.417 84.012" xml:space="preserve">
<g id="Goma">
	<path fill="#DDDDDD" d="M67.417,74.055c0,5.499-4.458,9.957-9.957,9.957H9.957C4.459,84.012,0,79.554,0,74.055V26.552
		c0-5.498,4.459-9.956,9.957-9.956H57.46c5.499,0,9.957,4.458,9.957,9.956V74.055z"/>
	<path fill="#F4F4F4" d="M67.417,57.46c0,5.499-4.458,9.957-9.957,9.957H9.957C4.459,67.417,0,62.959,0,57.46V9.957
		C0,4.459,4.459,0,9.957,0H57.46c5.499,0,9.957,4.459,9.957,9.957V57.46z"/>
</g>
</svg>
