<?xml version="1.0" encoding="utf-8"?>
<!-- Generator: Adobe Illustrator 16.0.0, SVG Export Plug-In . SVG Version: 6.00 Build 0)  -->
<!DOCTYPE svg PUBLIC "-//W3C//DTD SVG 1.1//EN" "http://www.w3.org/Graphics/SVG/1.1/DTD/svg11.dtd">
<svg version="1.1" id="Capa_1" xmlns="http://www.w3.org/2000/svg" xmlns:xlink="http://www.w3.org/1999/xlink" x="0px" y="0px"
	 width="65.005px" height="161.928px" viewBox="0 0 65.005 161.928" enable-background="new 0 0 65.005 161.928"
	 xml:space="preserve">
<g id="Tippex">
	<path fill="#F4F4F4" d="M65.005,158.813c0,1.72-1.395,3.114-3.115,3.114H3.114c-1.72,0-3.114-1.395-3.114-3.114V56.442
		c0-1.72,1.395-3.114,3.114-3.114h10.12H61.89c1.721,0,3.115,1.395,3.115,3.114V158.813z"/>
	<polygon fill="#DDDDDD" points="48.072,0 32.502,0 32.308,0 16.737,0 11.288,53.328 32.308,53.328 32.502,53.328 53.523,53.328 	
		"/>
	<rect x="25.497" fill="#F4F4F4" width="12.844" height="53.328"/>
	<rect x="5.773" y="81.483" fill="#2D2D2D" width="53.457" height="68.378"/>
	<rect x="9.146" y="85.03" fill="#E29088" width="46.71" height="61.676"/>
	<rect x="5.773" y="64.746" fill="#E29088" width="53.457" height="7.267"/>
</g>
</svg>
