<?xml version="1.0" encoding="utf-8"?>
<!-- Generator: Adobe Illustrator 16.0.0, SVG Export Plug-In . SVG Version: 6.00 Build 0)  -->
<!DOCTYPE svg PUBLIC "-//W3C//DTD SVG 1.1//EN" "http://www.w3.org/Graphics/SVG/1.1/DTD/svg11.dtd">
<svg version="1.1" id="Capa_1" xmlns="http://www.w3.org/2000/svg" xmlns:xlink="http://www.w3.org/1999/xlink" x="0px" y="0px"
	 width="54.565px" height="191.141px" viewBox="0 0 54.565 191.141" enable-background="new 0 0 54.565 191.141"
	 xml:space="preserve">
<g id="Pegamento_Pritt">
	<rect x="1.445" fill="#E29088" width="51.675" height="43.011"/>
	<rect x="3.53" y="43.011" fill="#E29088" width="47.505" height="118.76"/>
	<polygon fill="#2D2D2D" points="3.53,161.771 1.445,165.622 1.445,191.141 53.12,191.141 53.12,165.622 51.035,161.771 	"/>
	<rect y="6.848" fill="#CB7572" width="54.565" height="3.209"/>
	<rect y="13.267" fill="#CB7572" width="54.565" height="3.21"/>
	<rect y="19.687" fill="#CB7572" width="54.565" height="3.209"/>
	<polygon fill="#2D2D2D" points="27.204,49.751 6.181,57.132 6.181,81.368 6.181,88.75 27.204,81.368 48.227,88.75 48.227,81.368 
		48.227,57.132 	"/>
	<polygon fill="#FFFFFF" points="27.204,46.541 6.181,53.922 6.181,78.156 6.181,85.537 27.204,78.156 48.227,85.537 48.227,78.156 
		48.227,53.922 	"/>
	<polygon fill="#AAD4AE" points="6.181,149.733 48.227,134.968 48.227,111.697 6.181,127.024 	"/>
</g>
</svg>
