<?xml version="1.0" encoding="utf-8"?>
<!-- Generator: Adobe Illustrator 16.0.0, SVG Export Plug-In . SVG Version: 6.00 Build 0)  -->
<!DOCTYPE svg PUBLIC "-//W3C//DTD SVG 1.1//EN" "http://www.w3.org/Graphics/SVG/1.1/DTD/svg11.dtd">
<svg version="1.1" id="Capa_1" xmlns="http://www.w3.org/2000/svg" xmlns:xlink="http://www.w3.org/1999/xlink" x="0px" y="0px"
	 width="365.784px" height="20.354px" viewBox="0 0 365.784 20.354" enable-background="new 0 0 365.784 20.354"
	 xml:space="preserve">
<g id="Lápiz">
	<path fill="#E29088" d="M348.519,20.113c0,0,11.472,0.541,12.482,0c5.868-3.142,6.866-15.93,0-19.775
		c-1.358-0.76-12.482,0-12.482,0V20.113z"/>
	<polygon fill="#F2F2E9" points="33.675,20.113 0,10.227 33.675,0.338 	"/>
	<polygon fill="#3A3A3A" points="10.805,13.398 10.805,7.053 0,10.227 	"/>
	<path fill="#F4F4F4" d="M354.684,20.323c0,0-3.524-3.276,0-6.801c0,0-3.937-3.937,0.458-6.593c0,0-4.028-3.605,0-6.902
		l-6.623,0.311v19.775L354.684,20.323z"/>
	<path fill="#EAE78C" d="M33.675,20.113h314.844v-6.591L33.675,13.523C28.854,16.773,33.675,20.113,33.675,20.113z"/>
	<path fill="#3A3A3A" d="M33.675,13.523l314.844-0.001V6.93H33.675C28.854,10.182,33.675,13.523,33.675,13.523z"/>
	<path fill="#EAE78C" d="M33.675,6.93h314.844V0.338H33.675C28.854,3.588,33.675,6.93,33.675,6.93z"/>
</g>
</svg>
