<?xml version="1.0" encoding="utf-8"?>
<!-- Generator: Adobe Illustrator 16.0.0, SVG Export Plug-In . SVG Version: 6.00 Build 0)  -->
<!DOCTYPE svg PUBLIC "-//W3C//DTD SVG 1.1//EN" "http://www.w3.org/Graphics/SVG/1.1/DTD/svg11.dtd">
<svg version="1.1" id="Capa_1" xmlns="http://www.w3.org/2000/svg" xmlns:xlink="http://www.w3.org/1999/xlink" x="0px" y="0px"
	 width="275.104px" height="444px" viewBox="0 0 275.104 444" enable-background="new 0 0 275.104 444" xml:space="preserve">
<g id="Moleskine">
	<path fill="#4B4A4A" d="M184.104,441h72h9c5.522,0,10-4.477,10-10V39c0-5.523-4.477-10-10-10h-9h-72H0v412H184.104z"/>
	<path fill="#DDDDDD" d="M184.104,437h72h9c5.522,0,10-4.477,10-10V35c0-5.523-4.477-10-10-10h-9h-72H0v412H184.104z"/>
	<path fill="#F4F4F4" d="M184.104,435h72h9c5.522,0,10-4.477,10-10V33c0-5.523-4.477-10-10-10h-9h-72H0v412H184.104z"/>
	<path fill="#DDDDDD" d="M184.104,430h72h9c5.522,0,10-4.477,10-10V28c0-5.523-4.477-10-10-10h-9h-72H0v412H184.104z"/>
	<path fill="#F4F4F4" d="M184.104,428h72h9c5.522,0,10-4.477,10-10V26c0-5.523-4.477-10-10-10h-9h-72H0v412H184.104z"/>
	<path fill="#DDDDDD" d="M184.104,423h72h9c5.522,0,10-4.477,10-10V21c0-5.523-4.477-10-10-10h-9h-72H0v412H184.104z"/>
	<path fill="#F4F4F4" d="M184.104,421h72h9c5.522,0,10-4.477,10-10V19c0-5.523-4.477-10-10-10h-9h-72H0v412H184.104z"/>
	<path fill="#4B4A4A" d="M184.104,415h72h9c5.522,0,10-4.477,10-10V13c0-5.523-4.477-10-10-10h-9h-72H0v412H184.104z"/>
	<polygon fill="#2D2D2D" points="198.087,0 198.087,3 198.087,441 198.087,444 220.586,444 220.586,441 220.586,3 220.586,0 	"/>
	<rect y="407.223" fill="#4B4A4A" width="5" height="32.777"/>
</g>
</svg>
