<?xml version="1.0" encoding="utf-8"?>
<!-- Generator: Adobe Illustrator 16.0.0, SVG Export Plug-In . SVG Version: 6.00 Build 0)  -->
<!DOCTYPE svg PUBLIC "-//W3C//DTD SVG 1.1//EN" "http://www.w3.org/Graphics/SVG/1.1/DTD/svg11.dtd">
<svg version="1.1" id="Capa_1" xmlns="http://www.w3.org/2000/svg" xmlns:xlink="http://www.w3.org/1999/xlink" x="0px" y="0px"
	 width="131.26px" height="131.26px" viewBox="0 0 131.26 131.26" enable-background="new 0 0 131.26 131.26" xml:space="preserve">
<g id="Celofan_1_">
	<path fill="#F9F5E0" d="M65.63,0C29.384,0,0,29.384,0,65.63c0,36.246,29.384,65.63,65.63,65.63c36.247,0,65.63-29.385,65.63-65.63
		C131.26,29.384,101.876,0,65.63,0z M65.63,100.63c-19.33,0-35-15.671-35-35c0-19.33,15.67-35,35-35c19.331,0,35,15.67,35,35
		C100.63,84.959,84.961,100.63,65.63,100.63z"/>
	<path fill="#F4F4F4" d="M65.63,30.629c-19.33,0-35,15.67-35,35c0,19.33,15.67,35,35,35c19.331,0,35-15.671,35-35
		C100.63,46.3,84.961,30.629,65.63,30.629z M65.63,95.63c-16.568,0-30-13.433-30-30c0-16.568,13.432-30,30-30
		c16.569,0,30,13.432,30,30C95.63,82.198,82.2,95.63,65.63,95.63z"/>
</g>
</svg>
