<?xml version="1.0" encoding="utf-8"?>
<!-- Generator: Adobe Illustrator 16.0.0, SVG Export Plug-In . SVG Version: 6.00 Build 0)  -->
<!DOCTYPE svg PUBLIC "-//W3C//DTD SVG 1.1//EN" "http://www.w3.org/Graphics/SVG/1.1/DTD/svg11.dtd">
<svg version="1.1" id="Capa_1" xmlns="http://www.w3.org/2000/svg" xmlns:xlink="http://www.w3.org/1999/xlink" x="0px" y="0px"
	 width="21.693px" height="58.935px" viewBox="0 0 21.693 58.935" enable-background="new 0 0 21.693 58.935" xml:space="preserve">
<g id="Clips">
	<path fill="#DDDDDD" d="M18.741,15.917v32.562c0,0,0.969,7.492-7.371,7.49c-8.34,0-8.234-6.762-8.234-6.762L3.137,7.177
		c0,0,0.103-4.577,5.513-4.576c5.411-0.001,5.098,4.266,5.098,4.266V38.18c0,0,0.391,3.435-2.792,3.433
		c-3.45,0-3.034-3.536-3.034-3.536l0.002-19.851c0,0-0.002-1.685-1.457-1.685c-1.457,0-1.561,1.684-1.561,1.684v19.851
		c0,0-0.326,6.555,6.051,6.556c6.498,0,6.018-6.556,6.018-6.556L16.868,6.657c0,0-0.234-6.657-8.322-6.657
		C0.952-0.002,0.015,5.409,0.015,7.386s0,41.926,0,41.926s-0.9,9.623,11.471,9.623c11.66,0.002,10.143-10.455,10.143-10.455V16.021
		c0,0,0.053-1.447-1.443-1.446C18.741,14.575,18.741,15.917,18.741,15.917z"/>
</g>
</svg>
