<?xml version="1.0" encoding="utf-8"?>
<!-- Generator: Adobe Illustrator 16.0.0, SVG Export Plug-In . SVG Version: 6.00 Build 0)  -->
<!DOCTYPE svg PUBLIC "-//W3C//DTD SVG 1.1//EN" "http://www.w3.org/Graphics/SVG/1.1/DTD/svg11.dtd">
<svg version="1.1" id="Capa_1" xmlns="http://www.w3.org/2000/svg" xmlns:xlink="http://www.w3.org/1999/xlink" x="0px" y="0px"
	 width="172px" height="172px" viewBox="0 0 172 172" enable-background="new 0 0 172 172" xml:space="preserve">
<g id="Celofan">
	<path fill="#F9F5E0" d="M85.999,0C38.501,0,0,38.504,0,86c0,47.495,38.501,86,85.999,86C133.497,172,172,133.495,172,86
		C172,38.504,133.497,0,85.999,0z M86,140.728c-30.225,0-54.728-24.504-54.728-54.728c0-30.225,24.502-54.728,54.728-54.728
		c30.227,0,54.728,24.503,54.728,54.728C140.728,116.224,116.227,140.728,86,140.728z"/>
	<path fill="#F4F4F4" d="M86,31.272c-30.225,0-54.728,24.503-54.728,54.728c0,30.224,24.502,54.728,54.728,54.728
		c30.227,0,54.728-24.504,54.728-54.728C140.728,55.775,116.227,31.272,86,31.272z M86,136.819
		c-28.066,0-50.818-22.754-50.818-50.819c0-28.066,22.752-50.819,50.818-50.819c28.067,0,50.818,22.753,50.818,50.819
		C136.818,114.065,114.067,136.819,86,136.819z"/>
	<path fill="#F4F4F4" d="M86,50.817c-19.429,0-35.182,15.751-35.182,35.183c0,19.432,15.752,35.182,35.182,35.182
		c19.431,0,35.182-15.75,35.182-35.182C121.182,66.569,105.431,50.817,86,50.817z M86,118.669
		c-18.043,0-32.668-14.627-32.668-32.669c0-18.043,14.625-32.669,32.668-32.669S118.668,67.957,118.668,86
		C118.668,104.042,104.043,118.669,86,118.669z"/>
	<rect x="84.666" y="32.037" fill="#F4F4F4" width="2.669" height="21.343"/>
	
		<rect x="47.398" y="52.95" transform="matrix(0.5911 -0.8066 0.8066 0.5911 -31.3909 65.323)" fill="#F4F4F4" width="2.669" height="21.344"/>
	
		<rect x="121.932" y="52.95" transform="matrix(-0.591 -0.8067 0.8067 -0.591 144.79 200.6586)" fill="#F4F4F4" width="2.669" height="21.344"/>
	
		<rect x="47.92" y="98.296" transform="matrix(0.5909 0.8068 -0.8068 0.5909 108.0611 4.8441)" fill="#F4F4F4" width="2.669" height="21.344"/>
	
		<rect x="121.411" y="98.296" transform="matrix(-0.5909 0.8068 -0.8068 -0.5909 283.185 74.3308)" fill="#F4F4F4" width="2.669" height="21.344"/>
	<rect x="84.666" y="119.601" fill="#F4F4F4" width="2.669" height="21.342"/>
</g>
</svg>
