<?xml version="1.0" encoding="utf-8"?>
<!-- Generator: Adobe Illustrator 16.0.0, SVG Export Plug-In . SVG Version: 6.00 Build 0)  -->
<!DOCTYPE svg PUBLIC "-//W3C//DTD SVG 1.1//EN" "http://www.w3.org/Graphics/SVG/1.1/DTD/svg11.dtd">
<svg version="1.1" id="Capa_1" xmlns="http://www.w3.org/2000/svg" xmlns:xlink="http://www.w3.org/1999/xlink" x="0px" y="0px"
	 width="554.067px" height="277.034px" viewBox="0 0 554.067 277.034" enable-background="new 0 0 554.067 277.034"
	 xml:space="preserve">
<g id="Regla_1_">
	<path fill="#DDDDDD" d="M277.033,0L0,277.033l554.067,0.001L277.033,0z M407.495,221.898l-260.618,0.027c0,0-3.375,0.66-5.125-1.59
		s2.113-5.639,2.113-5.639L270.313,88.25c7.448-7.449,14.773,0,14.773,0l126.376,126.375c1.688,1.688,3.25,3.25,2.039,5.461
		S407.495,221.898,407.495,221.898z"/>
	<path fill="#F4F4F4" d="M277.033,0L2.519,274.516H551.55L277.033,0z M407.495,221.898l-260.618,0.027c0,0-3.375,0.66-5.125-1.59
		s2.113-5.639,2.113-5.639L270.313,88.25c7.448-7.449,14.773,0,14.773,0l126.376,126.375c1.688,1.688,3.25,3.25,2.039,5.461
		S407.495,221.898,407.495,221.898z"/>
	
		<rect x="289.812" y="17.873" transform="matrix(0.707 0.7072 -0.7072 0.707 105.056 -197.3353)" fill="#DDDDDD" width="1.706" height="20.473"/>
	
		<rect x="338.069" y="66.13" transform="matrix(0.7071 0.7071 -0.7071 0.7071 153.268 -217.2868)" fill="#DDDDDD" width="1.707" height="20.474"/>
	
		<rect x="297.05" y="23.698" transform="matrix(0.707 0.7072 -0.7072 0.707 108.8837 -201.7478)" fill="#DDDDDD" width="1.706" height="13.649"/>
	
		<rect x="301.876" y="28.523" transform="matrix(0.7074 0.7068 -0.7068 0.7074 113.5658 -203.6322)" fill="#DDDDDD" width="1.706" height="13.65"/>
	
		<rect x="306.702" y="33.349" transform="matrix(0.7071 0.7071 -0.7071 0.7071 118.4881 -205.7073)" fill="#DDDDDD" width="1.706" height="13.649"/>
	
		<rect x="311.528" y="38.176" transform="matrix(0.707 0.7072 -0.7072 0.707 123.3654 -207.7446)" fill="#DDDDDD" width="1.706" height="13.649"/>
	
		<rect x="321.178" y="47.827" transform="matrix(0.7071 0.7071 -0.7071 0.7071 132.9653 -211.7038)" fill="#DDDDDD" width="1.707" height="13.649"/>
	
		<rect x="326.005" y="52.653" transform="matrix(0.7072 0.707 -0.707 0.7072 137.736 -213.6647)" fill="#DDDDDD" width="1.707" height="13.649"/>
	
		<rect x="330.831" y="57.478" transform="matrix(0.7072 0.707 -0.707 0.7072 142.5603 -215.6635)" fill="#DDDDDD" width="1.705" height="13.649"/>
	
		<rect x="335.657" y="62.304" transform="matrix(0.7074 0.7068 -0.7068 0.7074 147.3267 -217.6245)" fill="#DDDDDD" width="1.706" height="13.65"/>
	
		<rect x="315.147" y="42.501" transform="matrix(0.7071 0.7071 -0.7071 0.7071 128.6395 -208.4987)" fill="#DDDDDD" width="1.707" height="17.062"/>
	
		<rect x="386.327" y="114.388" transform="matrix(0.7074 0.7068 -0.7068 0.7074 201.3792 -237.2007)" fill="#DDDDDD" width="1.706" height="20.474"/>
	
		<rect x="345.308" y="71.956" transform="matrix(0.707 0.7072 -0.7072 0.707 157.1553 -221.7369)" fill="#DDDDDD" width="1.706" height="13.649"/>
	
		<rect x="350.135" y="76.782" transform="matrix(0.707 0.7072 -0.7072 0.707 161.9824 -223.7358)" fill="#DDDDDD" width="1.705" height="13.649"/>
	
		<rect x="354.96" y="81.607" transform="matrix(0.7071 0.7071 -0.7071 0.7071 166.7458 -225.6963)" fill="#DDDDDD" width="1.706" height="13.649"/>
	
		<rect x="359.785" y="86.433" transform="matrix(0.7071 0.7071 -0.7071 0.7071 171.5717 -227.6951)" fill="#DDDDDD" width="1.707" height="13.649"/>
	
		<rect x="369.437" y="96.084" transform="matrix(0.7072 0.707 -0.707 0.7072 181.1553 -231.655)" fill="#DDDDDD" width="1.707" height="13.65"/>
	
		<rect x="374.263" y="100.91" transform="matrix(0.7072 0.707 -0.707 0.7072 185.9801 -233.6541)" fill="#DDDDDD" width="1.707" height="13.65"/>
	
		<rect x="379.088" y="105.736" transform="matrix(0.707 0.7072 -0.7072 0.707 190.9451 -235.7292)" fill="#DDDDDD" width="1.706" height="13.649"/>
	
		<rect x="383.914" y="110.562" transform="matrix(0.7071 0.7071 -0.7071 0.7071 195.7004 -237.6897)" fill="#DDDDDD" width="1.707" height="13.649"/>
	
		<rect x="363.404" y="90.759" transform="matrix(0.7072 0.707 -0.707 0.7072 176.831 -228.4499)" fill="#DDDDDD" width="1.707" height="17.061"/>
	
		<rect x="434.585" y="162.646" transform="matrix(0.7071 0.7071 -0.7071 0.7071 249.7833 -257.2646)" fill="#DDDDDD" width="1.706" height="20.474"/>
	
		<rect x="393.566" y="120.214" transform="matrix(0.7068 0.7074 -0.7074 0.7068 205.5013 -241.7639)" fill="#DDDDDD" width="1.705" height="13.649"/>
	
		<rect x="398.391" y="125.039" transform="matrix(0.7071 0.7071 -0.7071 0.7071 210.1775 -243.6863)" fill="#DDDDDD" width="1.706" height="13.649"/>
	
		<rect x="403.217" y="129.865" transform="matrix(0.7071 0.7071 -0.7071 0.7071 215.0037 -245.6854)" fill="#DDDDDD" width="1.707" height="13.65"/>
	
		<rect x="408.043" y="134.69" transform="matrix(0.7074 0.7068 -0.7068 0.7074 219.672 -247.608)" fill="#DDDDDD" width="1.706" height="13.65"/>
	
		<rect x="417.695" y="144.342" transform="matrix(0.7071 0.7071 -0.7071 0.7071 229.481 -251.6822)" fill="#DDDDDD" width="1.706" height="13.649"/>
	
		<rect x="422.52" y="149.168" transform="matrix(0.7068 0.7074 -0.7074 0.7068 234.4724 -253.7572)" fill="#DDDDDD" width="1.706" height="13.649"/>
	
		<rect x="427.346" y="153.994" transform="matrix(0.7068 0.7074 -0.7074 0.7068 239.3013 -255.7563)" fill="#DDDDDD" width="1.706" height="13.649"/>
	
		<rect x="432.172" y="158.819" transform="matrix(0.7074 0.7068 -0.7068 0.7074 243.7862 -257.602)" fill="#DDDDDD" width="1.705" height="13.65"/>
	
		<rect x="411.662" y="139.017" transform="matrix(0.7071 0.7071 -0.7071 0.7071 225.1546 -248.4766)" fill="#DDDDDD" width="1.706" height="17.062"/>
	
		<rect x="482.842" y="210.904" transform="matrix(0.7068 0.7074 -0.7074 0.7068 298.2429 -277.3287)" fill="#DDDDDD" width="1.706" height="20.474"/>
	
		<rect x="441.823" y="168.471" transform="matrix(0.7071 0.7071 -0.7071 0.7071 253.6099 -261.6768)" fill="#DDDDDD" width="1.707" height="13.649"/>
	
		<rect x="446.649" y="173.296" transform="matrix(0.7071 0.7071 -0.7071 0.7071 258.4353 -263.6758)" fill="#DDDDDD" width="1.707" height="13.65"/>
	
		<rect x="451.475" y="178.122" transform="matrix(0.7071 0.7071 -0.7071 0.7071 263.261 -265.6746)" fill="#DDDDDD" width="1.706" height="13.65"/>
	
		<rect x="456.301" y="182.948" transform="matrix(0.7071 0.7071 -0.7071 0.7071 268.0872 -267.6737)" fill="#DDDDDD" width="1.706" height="13.65"/>
	
		<rect x="465.952" y="192.6" transform="matrix(0.7068 0.7074 -0.7074 0.7068 277.9289 -271.7472)" fill="#DDDDDD" width="1.706" height="13.649"/>
	
		<rect x="470.778" y="197.426" transform="matrix(0.7068 0.7074 -0.7074 0.7068 282.7578 -273.7462)" fill="#DDDDDD" width="1.706" height="13.649"/>
	
		<rect x="475.603" y="202.251" transform="matrix(0.7071 0.7071 -0.7071 0.7071 287.3901 -275.6686)" fill="#DDDDDD" width="1.707" height="13.65"/>
	
		<rect x="480.43" y="207.076" transform="matrix(0.7074 0.7068 -0.7068 0.7074 292.0164 -277.591)" fill="#DDDDDD" width="1.705" height="13.65"/>
	
		<rect x="459.919" y="187.274" transform="matrix(0.7071 0.7071 -0.7071 0.7071 273.4119 -268.4655)" fill="#DDDDDD" width="1.707" height="17.062"/>
	
		<rect x="490.081" y="216.729" transform="matrix(0.7071 0.7071 -0.7071 0.7071 301.8672 -281.6656)" fill="#DDDDDD" width="1.707" height="13.649"/>
	
		<rect x="494.907" y="221.555" transform="matrix(0.7068 0.7074 -0.7074 0.7068 306.9005 -283.7408)" fill="#DDDDDD" width="1.706" height="13.649"/>
	
		<rect x="499.733" y="226.381" transform="matrix(0.7068 0.7074 -0.7074 0.7068 311.7295 -285.7399)" fill="#DDDDDD" width="1.706" height="13.649"/>
	
		<rect x="504.559" y="231.205" transform="matrix(0.7074 0.7068 -0.7068 0.7074 316.1314 -287.5856)" fill="#DDDDDD" width="1.705" height="13.65"/>
	
		<rect x="514.209" y="240.858" transform="matrix(0.7071 0.7071 -0.7071 0.7071 325.9965 -291.66)" fill="#DDDDDD" width="1.707" height="13.648"/>
	
		<rect x="519.035" y="245.683" transform="matrix(0.7071 0.7071 -0.7071 0.7071 330.8219 -293.6589)" fill="#DDDDDD" width="1.707" height="13.65"/>
	
		<rect x="508.177" y="235.532" transform="matrix(0.7071 0.7071 -0.7071 0.7071 321.6698 -288.4545)" fill="#DDDDDD" width="1.706" height="17.06"/>
	
		<rect x="523.862" y="250.508" transform="matrix(0.7074 0.7068 -0.7068 0.7074 335.4239 -295.5816)" fill="#DDDDDD" width="1.706" height="13.65"/>
	
		<rect x="528.686" y="255.334" transform="matrix(0.7071 0.7071 -0.7071 0.7071 340.4727 -297.6565)" fill="#DDDDDD" width="1.707" height="13.649"/>
	
		<rect x="69.567" y="211.096" transform="matrix(0.7071 -0.7071 0.7071 0.7071 -135.8804 114.6217)" fill="#DDDDDD" width="1.707" height="20.474"/>
	
		<rect x="23.723" y="255.527" transform="matrix(0.7068 -0.7074 0.7074 0.7068 -178.3806 94.3008)" fill="#DDDDDD" width="1.706" height="13.65"/>
	
		<rect x="28.548" y="250.7" transform="matrix(0.7068 -0.7074 0.7074 0.7068 -173.5518 96.2995)" fill="#DDDDDD" width="1.706" height="13.65"/>
	
		<rect x="33.375" y="245.877" transform="matrix(0.7074 -0.7068 0.7068 0.7074 -168.5992 98.1345)" fill="#DDDDDD" width="1.705" height="13.648"/>
	
		<rect x="38.201" y="241.051" transform="matrix(0.7074 -0.7068 0.7068 0.7074 -163.7758 100.1335)" fill="#DDDDDD" width="1.705" height="13.648"/>
	
		<rect x="47.851" y="231.399" transform="matrix(0.7071 -0.7071 0.7071 0.7071 -154.1844 104.2131)" fill="#DDDDDD" width="1.707" height="13.648"/>
	
		<rect x="52.677" y="226.573" transform="matrix(0.7071 -0.7071 0.7071 0.7071 -149.3583 106.2122)" fill="#DDDDDD" width="1.707" height="13.648"/>
	
		<rect x="57.503" y="221.748" transform="matrix(0.7074 -0.7068 0.7068 0.7074 -144.4842 108.129)" fill="#DDDDDD" width="1.705" height="13.648"/>
	
		<rect x="62.328" y="216.921" transform="matrix(0.7068 -0.7074 0.7074 0.7068 -139.7528 110.292)" fill="#DDDDDD" width="1.706" height="13.65"/>
	
		<rect x="44.232" y="235.724" transform="matrix(0.7071 -0.7071 0.7071 0.7071 -159.5091 103.4208)" fill="#DDDDDD" width="1.707" height="17.062"/>
	
		<rect x="117.825" y="162.838" transform="matrix(0.7068 -0.7074 0.7074 0.7068 -87.6382 134.6942)" fill="#DDDDDD" width="1.706" height="20.475"/>
	
		<rect x="71.98" y="207.269" transform="matrix(0.7068 -0.7074 0.7074 0.7068 -130.0951 114.2898)" fill="#DDDDDD" width="1.706" height="13.65"/>
	
		<rect x="76.807" y="202.444" transform="matrix(0.7071 -0.7071 0.7071 0.7071 -125.2294 116.2067)" fill="#DDDDDD" width="1.704" height="13.65"/>
	
		<rect x="81.632" y="197.619" transform="matrix(0.7074 -0.7068 0.7068 0.7074 -120.3691 118.1235)" fill="#DDDDDD" width="1.705" height="13.648"/>
	
		<rect x="86.457" y="192.792" transform="matrix(0.7071 -0.7071 0.7071 0.7071 -115.578 120.2044)" fill="#DDDDDD" width="1.707" height="13.65"/>
	
		<rect x="96.108" y="183.14" transform="matrix(0.7071 -0.7071 0.7071 0.7071 -105.9259 124.2018)" fill="#DDDDDD" width="1.707" height="13.65"/>
	
		<rect x="100.935" y="178.314" transform="matrix(0.7071 -0.7071 0.7071 0.7071 -101.0998 126.2009)" fill="#DDDDDD" width="1.707" height="13.65"/>
	
		<rect x="105.761" y="173.49" transform="matrix(0.7074 -0.7068 0.7068 0.7074 -96.2542 128.1177)" fill="#DDDDDD" width="1.705" height="13.649"/>
	
		<rect x="110.586" y="168.663" transform="matrix(0.7071 -0.7071 0.7071 0.7071 -91.4491 130.1989)" fill="#DDDDDD" width="1.707" height="13.65"/>
	
		<rect x="92.49" y="187.466" transform="matrix(0.7068 -0.7074 0.7074 0.7068 -111.2807 123.4923)" fill="#DDDDDD" width="1.706" height="17.062"/>
	
		<rect x="166.083" y="114.581" transform="matrix(0.7068 -0.7074 0.7074 0.7068 -39.3532 154.6831)" fill="#DDDDDD" width="1.705" height="20.474"/>
	
		<rect x="120.239" y="159.012" transform="matrix(0.7074 -0.7068 0.7068 0.7074 -81.7847 134.1148)" fill="#DDDDDD" width="1.705" height="13.65"/>
	
		<rect x="125.064" y="154.188" transform="matrix(0.7074 -0.7068 0.7068 0.7074 -76.9623 136.1135)" fill="#DDDDDD" width="1.705" height="13.648"/>
	
		<rect x="129.889" y="149.361" transform="matrix(0.7071 -0.7071 0.7071 0.7071 -72.1464 138.1944)" fill="#DDDDDD" width="1.707" height="13.65"/>
	
		<rect x="134.715" y="144.534" transform="matrix(0.7071 -0.7071 0.7071 0.7071 -67.3202 140.1935)" fill="#DDDDDD" width="1.707" height="13.65"/>
	
		<rect x="144.367" y="134.882" transform="matrix(0.7068 -0.7074 0.7074 0.7068 -57.6673 144.2731)" fill="#DDDDDD" width="1.706" height="13.65"/>
	
		<rect x="149.193" y="130.058" transform="matrix(0.7074 -0.7068 0.7068 0.7074 -52.8471 146.1079)" fill="#DDDDDD" width="1.705" height="13.649"/>
	
		<rect x="154.019" y="125.232" transform="matrix(0.7071 -0.7071 0.7071 0.7071 -48.017 148.1891)" fill="#DDDDDD" width="1.706" height="13.649"/>
	
		<rect x="158.844" y="120.406" transform="matrix(0.7071 -0.7071 0.7071 0.7071 -43.1918 150.1877)" fill="#DDDDDD" width="1.706" height="13.649"/>
	
		<rect x="140.747" y="139.209" transform="matrix(0.7077 -0.7065 0.7065 0.7077 -62.9908 143.2328)" fill="#DDDDDD" width="1.706" height="17.062"/>
	
		<rect x="214.34" y="66.323" transform="matrix(0.7071 -0.7071 0.7071 0.7071 8.8924 174.5883)" fill="#DDDDDD" width="1.706" height="20.474"/>
	
		<rect x="168.495" y="110.754" transform="matrix(0.7071 -0.7071 0.7071 0.7071 -33.5396 154.1855)" fill="#DDDDDD" width="1.707" height="13.65"/>
	
		<rect x="173.321" y="105.928" transform="matrix(0.7071 -0.7071 0.7071 0.7071 -28.7139 156.1844)" fill="#DDDDDD" width="1.707" height="13.65"/>
	
		<rect x="178.147" y="101.102" transform="matrix(0.7071 -0.7071 0.7071 0.7071 -23.8882 158.1833)" fill="#DDDDDD" width="1.706" height="13.65"/>
	
		<rect x="182.973" y="96.276" transform="matrix(0.7071 -0.7071 0.7071 0.7071 -19.062 160.1823)" fill="#DDDDDD" width="1.706" height="13.65"/>
	
		<rect x="192.624" y="86.626" transform="matrix(0.7071 -0.7071 0.7071 0.7071 -9.4115 164.18)" fill="#DDDDDD" width="1.706" height="13.649"/>
	
		<rect x="197.45" y="81.8" transform="matrix(0.7071 -0.7071 0.7071 0.7071 -4.5853 166.1791)" fill="#DDDDDD" width="1.706" height="13.649"/>
	
		<rect x="202.275" y="76.974" transform="matrix(0.7071 -0.7071 0.7071 0.7071 0.2404 168.1779)" fill="#DDDDDD" width="1.707" height="13.649"/>
	
		<rect x="207.102" y="72.149" transform="matrix(0.7071 -0.7071 0.7071 0.7071 5.066 170.1768)" fill="#DDDDDD" width="1.706" height="13.649"/>
	
		<rect x="189.004" y="90.952" transform="matrix(0.7071 -0.7071 0.7071 0.7071 -14.7369 163.3877)" fill="#DDDDDD" width="1.707" height="17.062"/>
	
		<rect x="216.753" y="62.497" transform="matrix(0.7071 -0.7071 0.7071 0.7071 14.7179 174.1747)" fill="#DDDDDD" width="1.707" height="13.649"/>
	
		<rect x="221.579" y="57.671" transform="matrix(0.7071 -0.7071 0.7071 0.7071 19.5436 176.1736)" fill="#DDDDDD" width="1.706" height="13.649"/>
	
		<rect x="226.405" y="52.845" transform="matrix(0.7071 -0.7071 0.7071 0.7071 24.3698 178.1727)" fill="#DDDDDD" width="1.706" height="13.649"/>
	
		<rect x="231.231" y="48.02" transform="matrix(0.7071 -0.7071 0.7071 0.7071 29.1949 180.1713)" fill="#DDDDDD" width="1.706" height="13.649"/>
	
		<rect x="240.882" y="38.368" transform="matrix(0.7071 -0.7071 0.7071 0.7071 38.8468 184.1693)" fill="#DDDDDD" width="1.707" height="13.649"/>
	
		<rect x="245.707" y="33.542" transform="matrix(0.7074 -0.7068 0.7068 0.7074 43.6135 186.0861)" fill="#DDDDDD" width="1.708" height="13.65"/>
	
		<rect x="237.262" y="42.695" transform="matrix(0.7071 -0.7071 0.7071 0.7071 33.5207 183.3764)" fill="#DDDDDD" width="1.706" height="17.061"/>
	
		<rect x="250.533" y="28.716" transform="matrix(0.7071 -0.7071 0.7071 0.7071 48.4985 188.1668)" fill="#DDDDDD" width="1.707" height="13.65"/>
	
		<rect x="255.358" y="23.891" transform="matrix(0.7071 -0.7071 0.7071 0.7071 53.3234 190.1656)" fill="#DDDDDD" width="1.707" height="13.649"/>
	
		<rect x="262.598" y="18.066" transform="matrix(0.707 -0.7072 0.7072 0.707 57.1836 194.6194)" fill="#DDDDDD" width="1.707" height="20.474"/>
</g>
</svg>
