<?xml version="1.0" encoding="utf-8"?>
<!-- Generator: Adobe Illustrator 16.0.0, SVG Export Plug-In . SVG Version: 6.00 Build 0)  -->
<!DOCTYPE svg PUBLIC "-//W3C//DTD SVG 1.1//EN" "http://www.w3.org/Graphics/SVG/1.1/DTD/svg11.dtd">
<svg version="1.1" id="Capa_1" xmlns="http://www.w3.org/2000/svg" xmlns:xlink="http://www.w3.org/1999/xlink" x="0px" y="0px"
	 width="34.087px" height="301.777px" viewBox="0 0 34.087 301.777" enable-background="new 0 0 34.087 301.777"
	 xml:space="preserve">
<g id="Edding_750">
	<path fill="#DDDDDD" d="M30.343,298.479c0,1.82-1.477,3.299-3.299,3.299H7.803c-1.822,0-3.299-1.479-3.299-3.299V84.604
		c0-1.822,1.477-3.299,3.299-3.299h19.242c1.822,0,3.299,1.477,3.299,3.299V298.479z"/>
	<path fill="#F4F4F4" d="M34.087,294.354c0,1.822-1.479,3.299-3.299,3.299H3.299c-1.822,0-3.299-1.477-3.299-3.299V80.479
		c0-1.82,1.477-3.299,3.299-3.299h27.49c1.82,0,3.299,1.479,3.299,3.299V294.354z"/>
	<path fill="#DDDDDD" d="M34.087,52.438c0-1.822-1.479-3.299-3.299-3.299H3.299C1.477,49.139,0,50.615,0,52.438v21.443
		c0,1.822,1.477,3.299,3.299,3.299h27.49c1.82,0,3.299-1.477,3.299-3.299V52.438z"/>
	<polygon fill="#F4F4F4" points="30.515,40.617 25.359,31.888 25.359,14.639 17.043,14.639 8.727,14.639 8.727,31.888 3.572,40.617 
		3.299,49.139 17.043,49.139 30.791,49.139 	"/>
	<path fill="#2D2D2D" d="M12.439,14.639c0,0-1.443-14.639,4.604-14.639c6.121,0,5.498,14.639,5.498,14.639H12.439z"/>
	<rect x="8.352" y="116.215" fill="#E29088" width="18.144" height="158.346"/>
	<rect x="8.352" y="100.271" fill="#40A7AA" width="18.144" height="13.744"/>
</g>
</svg>
