<?xml version="1.0" encoding="utf-8"?>
<!-- Generator: Adobe Illustrator 16.0.0, SVG Export Plug-In . SVG Version: 6.00 Build 0)  -->
<!DOCTYPE svg PUBLIC "-//W3C//DTD SVG 1.1//EN" "http://www.w3.org/Graphics/SVG/1.1/DTD/svg11.dtd">
<svg version="1.1" id="Capa_1" xmlns="http://www.w3.org/2000/svg" xmlns:xlink="http://www.w3.org/1999/xlink" x="0px" y="0px"
	 width="128.604px" height="302.014px" viewBox="0 0 128.604 302.014" enable-background="new 0 0 128.604 302.014"
	 xml:space="preserve">
<g id="Tijeras">
	<path fill="#EAE78C" d="M74.261,5.276c-8.168,7.166-8.168,14.999-8.168,14.999v18.75h-1.75c-1.105,0-2,0.896-2,2v14.75
		c0,1.104,0.895,2,2,2h1.75v88.5h-1.75c-1.105,0-2,0.895-2,2v14.75c0,1.104,0.895,2,2,2h3c0.129,0,0.253-0.016,0.375-0.039
		c0.122,0.023,0.246,0.039,0.375,0.039h13.001c1.104,0,2-0.896,2-2v-9.5c0-0.004-0.001-0.008-0.001-0.01v-6.609
		c0-24.867,29.5-54.631,29.5-54.631c17-17,16-40.5,16-40.5c0.011-33-26-47-26-47C89.417-3.073,80.329-0.048,74.261,5.276z
		 M91.843,13.525c4.916,1.249,25,13,25,37s-21,37-21,37s-18,10.5-18-7.25s0-55.5,0-55.5S78.096,10.033,91.843,13.525z"/>
	<path fill="#EAE78C" d="M24.077,16.705c0,0-24.075,12.957-24.066,43.502c0,0-0.925,21.75,14.81,37.484
		c0,0,27.305,27.549,27.305,50.564v6.117c0,0.002-0.001,0.004-0.001,0.008v8.793c0,1.021,0.829,1.852,1.852,1.852h3.367h8.665h4.336
		c1.104,0,2-0.896,2-2v-14.75c0-1.105-0.896-2-2-2h-2.484v-88.5h2.484c1.104,0,2-0.896,2-2v-14.75c0-1.104-0.896-2-2-2h-2.484
		v-7.975c0,0,0-7.25-7.559-13.882C44.682,12.24,36.272,9.44,24.077,16.705z M46.984,35.215c0,0,0,34.941,0,51.369
		s-16.66,6.711-16.66,6.711S10.886,81.262,10.886,59.049s18.59-33.09,23.141-34.245C46.75,21.571,46.984,35.215,46.984,35.215z"/>
	<path fill="#DDDDDD" d="M58.917,300.678c0,0-10.344-0.035-10.434-11.222c-0.089-11.187-0.59-114.351-0.59-114.351l16.78-4.973
		l1.357-5.107h11.213L58.917,300.678z"/>
	<path fill="#F4F4F4" d="M58.259,300.608c0,0,10.334,0.499,11.001-10.667s6.5-114.166,6.5-114.166l-16.501-5.834l-1-4.916H46.926
		L58.259,300.608z"/>
	<circle fill="#DDDDDD" cx="62.343" cy="200.968" r="6.444"/>
	<polygon fill="#F4F4F4" points="59.981,204.488 58.823,203.33 61.183,200.969 58.823,198.607 59.981,197.447 62.343,199.809 
		64.704,197.447 65.862,198.607 63.503,200.969 65.862,203.33 64.704,204.488 62.343,202.127 	"/>
	<g>
		<defs>
			<path id="SVGID_1_" d="M62.343,302.014l-6.443-80.363c0,0-0.381-3.598-4.469-2.736l-4.504,0.486l7.166,82.613H62.343z"/>
		</defs>
		<clipPath id="SVGID_2_">
			<use xlink:href="#SVGID_1_"  overflow="visible"/>
		</clipPath>
		<path clip-path="url(#SVGID_2_)" fill="#CDCCCC" d="M58.259,300.608c0,0,10.334,0.499,11.001-10.667s6.5-114.166,6.5-114.166
			l-16.501-5.834l-1-4.916H46.926L58.259,300.608z"/>
	</g>
</g>
</svg>
