<?xml version="1.0" encoding="utf-8"?>
<!-- Generator: Adobe Illustrator 16.0.0, SVG Export Plug-In . SVG Version: 6.00 Build 0)  -->
<!DOCTYPE svg PUBLIC "-//W3C//DTD SVG 1.1//EN" "http://www.w3.org/Graphics/SVG/1.1/DTD/svg11.dtd">
<svg version="1.1" id="Capa_1" xmlns="http://www.w3.org/2000/svg" xmlns:xlink="http://www.w3.org/1999/xlink" x="0px" y="0px"
	 width="133.951px" height="176.643px" viewBox="0 0 133.951 176.643" enable-background="new 0 0 133.951 176.643"
	 xml:space="preserve">
<g id="Sacapuntas">
	<rect x="82.4" y="76.689" fill="#BBBBBB" width="51.551" height="67.484"/>
	<path fill="#F4F4F4" d="M114.034,83.953c12.659,0,12.653,10.076,12.653,10.076v41.709h-25.541V94.029
		C101.146,94.029,101.146,83.953,114.034,83.953z"/>
	<g>
		<defs>
			<rect id="SVGID_1_" x="101.146" y="80.907" width="7.576" height="59.518"/>
		</defs>
		<clipPath id="SVGID_2_">
			<use xlink:href="#SVGID_1_"  overflow="visible"/>
		</clipPath>
		<path clip-path="url(#SVGID_2_)" fill="#DDDDDD" d="M114.034,83.953c12.659,0,12.653,10.076,12.653,10.076v41.709h-25.541V94.029
			C101.146,94.029,101.146,83.953,114.034,83.953z"/>
	</g>
	<circle fill="#DDDDDD" cx="117.275" cy="112.775" r="6.444"/>
	<polygon fill="#F4F4F4" points="113.754,110.413 114.914,109.255 117.275,111.615 119.636,109.255 120.795,110.413 
		118.435,112.775 120.795,115.137 119.636,116.295 117.275,113.935 114.914,116.295 113.754,115.137 116.116,112.775 	"/>
	<rect x="82.4" y="144.174" fill="#CDCCCC" width="51.551" height="32.469"/>
	<circle fill="#BBBBBB" cx="108.175" cy="160.408" r="11.548"/>
</g>
<g id="Viruta">
	<path fill="#F9F5E0" d="M70.414,0c0,0-16.557,18.052-30.503,5.573c0,0-1.765,20.353-24.012,17.416c0,0,6.597,24.153-14.604,26.458
		c0,0,13.125,17.147-1.295,32.913c0,0,16.072,2.035,13.149,28.408c0,0,17.604-1.6,21.769,18.301c0,0,15.47-7.424,26.799,7.844
		l3.061-38.119c-15.637-1.24-27.942-14.311-27.942-30.267c0-16.773,13.598-30.372,30.372-30.372
		c11.869,0,22.142,6.813,27.138,16.737l0.006-0.002l36.997-10.744c0,0-12.788-6.362-12.88-21.777c0,0-13.961,1.492-20.934-15.391
		C97.535,6.979,84.36,15.048,70.414,0z"/>
	<path opacity="0.5" fill="#E9E3CE" d="M118.468,22.369c0,0-13.961,1.492-20.934-15.391c0,0-13.175,8.069-27.121-6.979
		c0,0-16.557,18.052-30.503,5.573c0,0-1.765,20.353-24.012,17.416c0,0,0.108,0.398,0.252,1.091l27.25,25.6
		c5.563-7.018,14.156-11.524,23.807-11.524c11.869,0,22.142,6.813,27.138,16.737l0.006-0.002l36.997-10.744
		C131.348,44.146,118.56,37.784,118.468,22.369z"/>
	<g>
		<path fill="#E29088" d="M63.431,35.718"/>
		<path fill="#E29088" d="M93.552,48.609"/>
		<g>
			<path fill="#E29088" d="M63.41,35.721c-0.133,0.176-4.635,6.092-12.949,4.338c-0.004,0.003-0.008,0.005-0.013,0.008
				c-0.062,0.193-2.814,8.596-9.122,7.95c-0.003,0.003-0.006,0.008-0.009,0.012c0.011,0.166,0.196,3.474-1.311,6.988l0,0.001
				c0.069-0.14,0.151-0.272,0.222-0.411c-0.314,0.607-0.61,1.227-0.883,1.857c0.065-0.15,0.124-0.304,0.191-0.452
				c-0.932,1.782-2.34,3.546-4.469,4.909c-0.001,0.008-0.004,0.015-0.005,0.021c0.136,0.268,3.35,6.744,0.865,18.205
				c0.001,0.002,0.001,0.006,0.002,0.008c0.089,0.041,6.842,3.176,7.383,12.16c0.003,0.004,0.006,0.006,0.009,0.01
				c0.175-0.012,7.173-0.391,10.903,7.568l0.006,0.002c0.077-0.053,4.919-3.385,10.334,2.549l0.213-2.65
				c-0.033-0.003-0.065-0.008-0.099-0.01c-0.622-0.773-4.497-5.195-9.78-2.497c-0.006-0.002-0.012-0.005-0.018-0.008
				c-0.061-0.222-1.837-6.401-9.781-6.938c-0.003-0.004-0.007-0.007-0.011-0.011c-0.006-0.212-0.291-8.985-6.623-10.985
				c0.527,1.544,1.176,3.031,1.934,4.453c-1.5-2.811-2.569-5.883-3.123-9.133c0.275,1.6,0.671,3.157,1.184,4.662
				c0.093-0.271,2.864-9.865-0.815-16.738c0.002-0.01,0.004-0.019,0.007-0.027c0.25-0.184,6.457-4.834,5.575-11.655
				c0.004-0.005,0.008-0.012,0.013-0.017c0.241-0.035,7.311-1.07,7.961-7.167c0.006-0.004,0.012-0.007,0.018-0.011
				c0.276,0,10.241-0.04,11.945-4.279c0.008-0.001,0.016-0.002,0.023-0.002c0.36,0.139,11.634,4.469,16.26,2.303
				c0.005,0.003,0.011,0.005,0.017,0.007c0.092,0.188,3.08,6.17,8.225,5.39c0.011,0.01,0.021,0.02,0.032,0.028
				c0.028,0.317,0.649,6.618,6.62,8.729c-0.375-0.745-0.789-1.466-1.221-2.173c0.434,0.709,0.849,1.432,1.225,2.179l0.006-0.002
				l2.594-0.754c0,0-3.278-1.168-5.508-3.913c-0.036-0.049-0.076-0.094-0.113-0.142c-0.053-0.069-0.105-0.14-0.159-0.208
				c-1.099-1.482-1.873-3.386-1.726-5.773L89.438,44.1c-0.014,0.006-5.699,2.092-9.225-5.938c-0.003-0.002-0.005-0.003-0.009-0.004
				c-0.113,0.037-7.451,2.373-16.776-2.439 M46.305,90.546c0.283,0.268,0.569,0.532,0.862,0.789
				C46.875,91.078,46.588,90.813,46.305,90.546z M47.469,91.594c0.264,0.226,0.53,0.448,0.802,0.665
				C47.999,92.042,47.732,91.819,47.469,91.594z M48.648,92.554c0.253,0.196,0.51,0.389,0.77,0.577
				C49.158,92.942,48.902,92.75,48.648,92.554z M49.853,93.439c0.249,0.174,0.5,0.343,0.754,0.509
				C50.353,93.782,50.102,93.613,49.853,93.439z M64.58,98.773c-0.766-0.065-1.522-0.163-2.271-0.284
				C63.058,98.61,63.814,98.708,64.58,98.773z M59.446,97.882c-0.695-0.184-1.38-0.39-2.054-0.62
				C58.066,97.492,58.751,97.698,59.446,97.882z M62.032,98.447c-0.734-0.126-1.457-0.283-2.172-0.461
				C60.575,98.164,61.298,98.321,62.032,98.447z M56.989,97.119c-0.684-0.244-1.359-0.508-2.02-0.799
				C55.63,96.611,56.305,96.875,56.989,97.119z M53.664,95.707c0.241,0.12,0.485,0.232,0.729,0.347
				C54.149,95.939,53.904,95.827,53.664,95.707z M53.103,95.414c-0.25-0.131-0.499-0.263-0.744-0.4
				C52.604,95.151,52.853,95.283,53.103,95.414z M51.09,94.259c0.247,0.155,0.497,0.305,0.748,0.452
				C51.586,94.563,51.336,94.414,51.09,94.259z M46.108,90.36c-0.336-0.325-0.665-0.657-0.986-0.997
				C45.443,89.703,45.772,90.035,46.108,90.36z M42.105,85.614c0.894,1.311,1.888,2.549,2.972,3.702
				C43.992,88.163,43,86.925,42.105,85.614z M42.033,85.505c-0.271-0.4-0.533-0.809-0.786-1.225
				C41.499,84.696,41.761,85.104,42.033,85.505z M41.171,84.155c-0.258-0.429-0.506-0.864-0.744-1.307
				C40.665,83.291,40.913,83.727,41.171,84.155z M46.648,46.199c-0.481,0.444-0.948,0.903-1.4,1.378
				C45.701,47.103,46.167,46.644,46.648,46.199z M41.182,52.894c-0.124,0.207-0.245,0.416-0.365,0.625
				C40.937,53.309,41.058,53.101,41.182,52.894z M36.835,68.527c0-0.585,0.019-1.165,0.052-1.742
				C36.854,67.362,36.835,67.942,36.835,68.527c0,0.794,0.038,1.577,0.099,2.355C36.875,70.104,36.835,69.321,36.835,68.527z
				 M37.288,63.331c-0.083,0.477-0.151,0.959-0.212,1.442C37.136,64.289,37.205,63.808,37.288,63.331z M37.039,65.046
				c-0.054,0.469-0.093,0.942-0.125,1.418C36.945,65.987,36.985,65.515,37.039,65.046z M36.956,71.183
				c0.067,0.769,0.163,1.529,0.287,2.28C37.12,72.712,37.022,71.951,36.956,71.183z M37.335,63.082
				c0.085-0.469,0.179-0.935,0.286-1.396C37.515,62.147,37.421,62.613,37.335,63.082z M38.023,60.136
				c-0.109,0.381-0.209,0.766-0.304,1.152C37.815,60.901,37.914,60.517,38.023,60.136z M39.055,57.149
				c-0.113,0.279-0.22,0.561-0.324,0.844C38.835,57.71,38.942,57.429,39.055,57.149z M38.5,58.628
				c-0.111,0.323-0.215,0.648-0.315,0.977C38.286,59.276,38.389,58.951,38.5,58.628z M41.862,51.821
				c0.115-0.174,0.225-0.351,0.343-0.521C42.086,51.471,41.977,51.647,41.862,51.821z M44.886,47.952
				c-0.565,0.613-1.108,1.246-1.622,1.904C43.777,49.198,44.321,48.565,44.886,47.952z M49.081,44.17
				c0.67-0.5,1.359-0.974,2.07-1.418C50.44,43.196,49.75,43.671,49.081,44.17z M47.157,45.741c0.498-0.439,1.01-0.861,1.536-1.267
				C48.167,44.88,47.654,45.302,47.157,45.741z M53.305,41.536c-0.221,0.113-0.445,0.223-0.663,0.342
				C52.86,41.759,53.083,41.649,53.305,41.536z M62.05,38.61c0.358-0.062,0.715-0.125,1.077-0.174
				C62.765,38.485,62.408,38.548,62.05,38.61z M54.294,41.044c0.262-0.123,0.526-0.242,0.792-0.358
				C54.82,40.802,54.556,40.921,54.294,41.044z M56.016,40.302c0.276-0.109,0.549-0.223,0.829-0.324
				C56.565,40.079,56.292,40.192,56.016,40.302z M58.415,39.456c0.321-0.098,0.647-0.18,0.972-0.266
				C59.062,39.276,58.735,39.358,58.415,39.456z M60.211,38.979c0.345-0.082,0.692-0.156,1.042-0.225
				C60.904,38.823,60.556,38.898,60.211,38.979z M63.47,38.399c0.557-0.068,1.115-0.133,1.681-0.17
				C64.586,38.269,64.027,38.331,63.47,38.399z M74.172,38.972c-0.198-0.046-0.393-0.1-0.592-0.143
				C73.78,38.872,73.974,38.926,74.172,38.972z M71.789,38.506c-0.205-0.031-0.412-0.056-0.617-0.082
				C71.377,38.45,71.583,38.475,71.789,38.506z M69.779,38.273c-0.2-0.017-0.4-0.034-0.602-0.048
				C69.378,38.239,69.578,38.257,69.779,38.273z M75.383,39.28c0.271,0.076,0.54,0.157,0.808,0.24
				C75.923,39.437,75.654,39.356,75.383,39.28z M77.18,39.849c0.265,0.092,0.53,0.18,0.791,0.278
				C77.71,40.028,77.445,39.94,77.18,39.849z M79.494,40.753c0.746,0.33,1.477,0.688,2.188,1.075
				C80.969,41.441,80.24,41.083,79.494,40.753z M83.632,42.991c-0.602-0.387-1.216-0.757-1.846-1.102
				C82.417,42.235,83.031,42.604,83.632,42.991z M86.229,44.873c0.339,0.273,0.671,0.554,0.997,0.841
				C86.899,45.427,86.568,45.146,86.229,44.873z M84.262,43.419c0.412,0.28,0.818,0.566,1.216,0.866
				C85.081,43.986,84.674,43.698,84.262,43.419z M89.439,47.857c-0.475-0.511-0.967-1.005-1.477-1.481
				C88.472,46.853,88.964,47.347,89.439,47.857z M89.812,48.262c0.492,0.549,0.961,1.118,1.412,1.701
				C90.773,49.379,90.303,48.811,89.812,48.262z M91.703,50.609c0.353,0.481,0.69,0.972,1.014,1.474
				C92.393,51.581,92.054,51.091,91.703,50.609z"/>
		</g>
	</g>
	<path fill="#E29088" d="M37.093,125.929c0,0-4-18-21.188-17.125c0,0,3.375-20.312-11.875-27.312c0,0,12.062-12,1.25-30.188
		c0,0,19.062-2.188,13.688-25.062c0,0,21.5,0.188,22.375-16.875c0,0,13.125,9.5,29.25-5.562c0,0,8.441,12.292,25.416,7.104
		c0,0,3,12.417,19.334,14.124c0,0,0,13.334,12.98,19.992l3.024-0.878c0,0-12.788-6.362-12.88-21.777c0,0-13.961,1.492-20.934-15.391
		c0,0-13.175,8.069-27.121-6.979c0,0-16.557,18.052-30.503,5.573c0,0-1.765,20.353-24.012,17.416c0,0,6.597,24.153-14.604,26.458
		c0,0,13.125,17.147-1.295,32.913c0,0,16.072,2.035,13.149,28.408c0,0,17.604-1.6,21.769,18.301c0,0,15.47-7.424,26.799,7.844
		l0.194-2.416C61.911,134.497,53.968,120.741,37.093,125.929z"/>
</g>
</svg>
